<svg xmlns="http://www.w3.org/2000/svg" width="545.846" height="449.526" viewBox="0 0 545.846 449.526">
  <g id="Group_10" data-name="Group 10" transform="translate(-126.036 -38.961)">
    <circle id="Ellipse_12" data-name="Ellipse 12" cx="23.279" cy="23.279" r="23.279" transform="translate(218.403 43.597)" fill="#2f2e41"/>
    <path id="Path_86" data-name="Path 86" d="M235.615,564.1l14.3-49.6,4.869,1.521S249,553.145,239.875,562.579Z" transform="translate(-64.835 -216.966)" fill="#2f2e41"/>
    <path id="Path_87" data-name="Path 87" d="M306.88,225s1.826,19.475-2.434,24.952,2.739,16.128,2.739,16.128l12.78,15.215,18.866-8.52,2.739-15.823L339.744,246s-6.39-6.39-3.652-17.954S306.88,225,306.88,225Z" transform="translate(-81.631 -144.13)" fill="#ffb9b9"/>
    <path id="Path_88" data-name="Path 88" d="M306.88,225s1.826,19.475-2.434,24.952,2.739,16.128,2.739,16.128l12.78,15.215,18.866-8.52,2.739-15.823L339.744,246s-6.39-6.39-3.652-17.954S306.88,225,306.88,225Z" transform="translate(-81.631 -144.13)" opacity="0.1"/>
    <path id="Path_89" data-name="Path 89" d="M166.73,578.164v12.476l16.736,3.347-1.522-20.692Z" transform="translate(69.474 -133.046)" fill="#ffb9b9"/>
    <path id="Path_90" data-name="Path 90" d="M232.375,572.689l-3.652,17.345,7.3,5.173,12.781-9.433-1.522-14.911Z" transform="translate(54.038 -132.44)" fill="#ffb9b9"/>
    <path id="Path_91" data-name="Path 91" d="M337.346,727.982s-6.39-10.8-18.258-4.031c0,0-2.13,11.943-4.26,12.856s-14,18.258,0,19.779,21-3.043,21-3.043-2.739,2.357,1.521,1.139,2.434-7.912,2.434-7.912Z" transform="translate(-82.885 -268.562)" fill="#2f2e41"/>
    <path id="Path_92" data-name="Path 92" d="M395.99,719.572s-9.433,6.695-10.955,3.652-3.956-2.739-3.956-2.739-8.52,32.119-3.043,33.641a18.463,18.463,0,0,0,10.651-.55s7.3-5.115,7.3-1.159,20.388,3.671,28.908,3.367,3.956-6.695,3.956-6.695L417.6,738.134l-12.78-18.562S399.033,714.4,395.99,719.572Z" transform="translate(-99.839 -267.455)" fill="#2f2e41"/>
    <path id="Path_93" data-name="Path 93" d="M283.022,447.982,295.8,570.614s7,74.857,8.216,76.075,9.129,5.173,26.474,0l-3.956-97.984,7.3-60.859,16.736,41.993s3.956,112.894,6.695,112.894,19.475,5.477,23.431-1.217,3.347-78.813,3.347-78.813S382.223,448.9,368.834,445.244,283.022,447.982,283.022,447.982Z" transform="translate(-76.639 -199.441)" fill="#2f2e41"/>
    <circle id="Ellipse_13" data-name="Ellipse 13" cx="20.996" cy="20.996" r="20.996" transform="translate(220.685 50.14)" fill="#ffb9b9"/>
    <path id="Path_94" data-name="Path 94" d="M313.075,280.909s-2.13-13.085-2.13-15.519-9.433-3.956-9.433-3.956-7.3-8.216-8.825-7-24.648,16.736-28.3,18.866-7.607,11.259-7.3,11.868,19.171,40.167,19.171,40.167,8.216,24.344,2.434,37.124-13.085,38.037-2.434,43.21,62.381,16.432,71.814,6.695,16.128-12.476,18.562-12.476-10.042-42.3-7.3-46.253-1.217-28.6-1.217-28.6l14-39.254S370.892,263.868,343.2,259l-16.566-8.032Z" transform="translate(-70.176 -151.348)" fill="#6b6b6b"/>
    <path id="Path_95" data-name="Path 95" d="M254.56,456.356s-1.521,14.606-1.521,18.866-7.3,29.213,3.347,32.256,9.738-33.168,9.738-33.168V455.747Z" transform="translate(-68.565 -202.337)" fill="#ffb9b9"/>
    <path id="Path_96" data-name="Path 96" d="M419.561,438.324s1.826,14,.913,17.041,8.825,29.517-4.26,31.038-9.738-31.647-9.738-31.647V438.324Z" transform="translate(-107.282 -197.998)" fill="#ffb9b9"/>
    <path id="Path_97" data-name="Path 97" d="M252.227,558.525l8.825-46.862h2.739a18.432,18.432,0,0,1,2.739,17.649c-3.652,10.346-6.695,29.213-6.695,29.213Z" transform="translate(-68.971 -216.259)" fill="#2f2e41"/>
    <path id="Path_98" data-name="Path 98" d="M259.5,291.647l-4.564,3.652s-6.086,96.766-4.564,104.07-5.477,17.649.609,18.562,13.389,4.869,16.736,2.434,3.956-11.259,5.173-13.389,3.347-27.387,3.347-27.387,6.39-25.257,2.434-44.123-7.607-38.037-7.607-38.037Z" transform="translate(-68.031 -161.477)" fill="#6b6b6b"/>
    <path id="Path_99" data-name="Path 99" d="M389.8,281.517l14,11.867,10.65,62.077s6.695,48.383,1.521,48.992-13.085-.913-16.432,0a7.126,7.126,0,0,1-6.086-1.521s-3.652-19.475-3.652-19.779-2.434-22.517-2.434-22.517l-3.043-24.952,4.564-27.387Z" transform="translate(-101.861 -158.955)" fill="#6b6b6b"/>
    <path id="Path_100" data-name="Path 100" d="M271.9,640.4s-1.978,5.681-4.7,13.416c-1.266,3.6-2.693,7.641-4.163,11.764-.946,2.666-1.908,5.365-2.854,8-1.509,4.215-2.976,8.262-4.257,11.737-1.692,4.586-3.064,8.18-3.8,9.856-3.347,7.607-64.511-4.564-69.38-7.607s-6.086-13.389-6.695-28c0-.076-.006-.152-.006-.228-.079-2.949.672-7.34,1.929-12.491.627-2.574,1.381-5.337,2.221-8.207,1.126-3.849,2.4-7.884,3.74-11.9,5.739-17.254,12.5-34.118,12.5-34.118s11.868-8.216,16.128-13.693,27.691-9.738,27.691-9.738c6.695.3,21.909,26.17,28,34.081S271.9,640.4,271.9,640.4Z" transform="translate(-50 -230.586)" fill="#3f3d56"/>
    <circle id="Ellipse_14" data-name="Ellipse 14" cx="2.739" cy="2.739" r="2.739" transform="translate(185.082 358.089)" fill="#2f2e41"/>
    <circle id="Ellipse_15" data-name="Ellipse 15" cx="1.521" cy="1.521" r="1.521" transform="translate(190.56 362.349)" fill="#2f2e41"/>
    <path id="Path_101" data-name="Path 101" d="M268.576,672.9c-1.266,3.6-2.693,7.641-4.163,11.764l-82.842-26.937c1.126-3.849,2.4-7.884,3.74-11.9Z" transform="translate(-51.378 -249.666)" fill="#f2f2f2"/>
    <path id="Path_102" data-name="Path 102" d="M260.18,699.332c-1.509,4.215-2.976,8.262-4.257,11.737l-79.881-25.974c-.079-2.949.673-7.34,1.929-12.491Z" transform="translate(-50 -256.332)" fill="#f2f2f2"/>
    <path id="Path_103" data-name="Path 103" d="M258.3,599.588s6.086,26.778,2.434,50.513,9.129,45.949,9.129,45.949" transform="translate(-70.484 -238.152)" fill="none" stroke="#2f2e41" stroke-miterlimit="10" stroke-width="3"/>
    <path id="Path_104" data-name="Path 104" d="M256.21,602.425s-11.868,43.21-12.172,49.3-5.173,49.6-11.259,54.165" transform="translate(-64.128 -238.859)" fill="none" stroke="#2f2e41" stroke-miterlimit="10" stroke-width="3"/>
    <path id="Path_105" data-name="Path 105" d="M308.029,189.561s-4.753-12.357,2.139-16.4l1.9,5.466s17.347-10.456,21.862-8.08l-4.277,5.7s20.2,0,21.625,7.842l-7.129.238s7.6,4.99,7.842,13.07l-15.209.951,7.367,4.277s-27.566,3.8-34.22-7.129Z" transform="translate(-82.468 -131.237)" fill="#2f2e41"/>
    <path id="Path_106" data-name="Path 106" d="M303.078,194.311s5.477,10.955,12.78,8.216,0-12.78,0-12.78l-4.869-2.434Z" transform="translate(-81.633 -135.498)" fill="#2f2e41"/>
    <rect id="Rectangle_13" data-name="Rectangle 13" width="13.104" height="38.146" transform="translate(410.591 216.412) rotate(-49.171)" fill="#43a27f"/>
    <rect id="Rectangle_14" data-name="Rectangle 14" width="13.104" height="33.813" transform="translate(466.136 393.724) rotate(-49.171)" fill="#43a27f"/>
    <path id="Path_108" data-name="Path 108" d="M757.849,488.471v.769q-.026,2.9-.166,5.766a128.415,128.415,0,0,1-256.4,1.677q-.262-4.075-.262-8.212a127.779,127.779,0,0,1,23.612-74.227q1.848-2.621,3.844-5.145c.917-1.171,1.861-2.315,2.813-3.451a128.439,128.439,0,0,1,178.96-16.982c1.546,1.249,3.066,2.542,4.551,3.861q1.782,1.586,3.5,3.241a128.067,128.067,0,0,1,39.1,81.906Q757.849,483.02,757.849,488.471Z" transform="translate(-106.918 -178.509)" fill="#6b6b6b"/>
    <path id="Path_109" data-name="Path 109" d="M624.076,643.026c-79.719,0-144.576-64.857-144.576-144.576a144.1,144.1,0,0,1,38.576-98.318l3.2,2.971a139.747,139.747,0,0,0-37.41,95.347c0,77.311,62.9,140.208,140.208,140.208a139.1,139.1,0,0,0,100.654-42.6l3.136,3.04a143.433,143.433,0,0,1-103.79,43.929Z" transform="translate(-101.56 -188.489)" fill="#43a27f"/>
    <rect id="Rectangle_15" data-name="Rectangle 15" width="36.69" height="36.69" transform="translate(506.791 451.48)" fill="#43a27f"/>
    <path id="Path_110" data-name="Path 110" d="M528.476,424.215a.714.714,0,0,1,.175.1c.69.568-.175,1.66-.07,2.56.122,1.153,1.66,1.406,2.822,1.52s2.629,1.057,2.079,2.088c-2.918,1-5.87.017-8.849-1.127a127.779,127.779,0,0,0-23.613,74.227q0,4.141.262,8.212a3.318,3.318,0,0,0,.795.428,16.973,16.973,0,0,1,2.691.743c.638.376,1.066,1.04,1.7,1.389,1.826,1,4.359-.917,6.063.271a15.662,15.662,0,0,1,1.249,1.275c1.572,1.363,4.158.445,5.975,1.468a7.09,7.09,0,0,1,2.4,3.154c1.564,2.97,4.1,5.888,7.443,6.124a20.048,20.048,0,0,1,3.162.1c1.031.236,2.044,1.136,1.878,2.175-.288,1.791.594,3.748.358,5.538-.428,3.276-5.067,4.709-5.46,7.984a19.712,19.712,0,0,1-.122,2.158c-.21.856-.856,1.555-1.083,2.411-.437,1.616.725,3.232,1.992,4.315s2.8,2.035,3.494,3.555c.734,1.616.376,3.494.611,5.25.524,3.835,3.835,6.674,7.242,8.509a7.562,7.562,0,0,1,2.83,2.062c.874,1.267.786,2.935,1.083,4.446.716,3.7,3.826,6.744,3.914,10.509.061,2.682-1.424,5.11-2.315,7.635a17.621,17.621,0,0,0-.795,8.247,129.032,129.032,0,0,0,15.838,11.487,4.616,4.616,0,0,0,.655-1.468,2.9,2.9,0,0,0-1.354-3.005,7.181,7.181,0,0,0,2.507-1.607,2.459,2.459,0,0,0,.454-2.778c1.537.192,3.363.288,4.377-.891a3.909,3.909,0,0,0,.437-3.555,14.662,14.662,0,0,1-.874-3.617,65.069,65.069,0,0,0,10.675-.358,6.93,6.93,0,0,0-3.25-4.071c1.607-.271,3.066-2.193,3.573-3.739a9.524,9.524,0,0,0,.07-4.831,2.569,2.569,0,0,1-.052-1.258,2.475,2.475,0,0,1,1.275-1.232q3.983-2.293,7.967-4.578a4.8,4.8,0,0,0,1.275-.935,3.8,3.8,0,0,0,.28-3.678,18.53,18.53,0,0,1-1.275-3.634c-.489-3.818,3.6-6.56,4.979-10.16a15.261,15.261,0,0,0,.751-4.447c.114-1.625.122-3.5-1.118-4.543-1.2-1-3.058-.778-4.307-1.712-1.144-.856-1.537-2.507-2.787-3.2-1.136-.629-2.551-.227-3.818-.524-2.219-.515-3.617-3.075-5.888-3.311-1.275-.14-2.726.489-3.774-.253-.926-.664-.961-1.983-1.136-3.1a8.663,8.663,0,0,0-6.989-7.006c-1.319-.21-2.752-.131-3.879-.856s-1.651-2.105-2.551-3.127c-1.433-1.634-3.7-2.219-5.827-2.717q-4.324-1.009-8.64-2.027c-1.529-.367-3.5-.559-4.333.786a5.914,5.914,0,0,0-.507,1.616,5.012,5.012,0,0,1-4.7,3.529,5.553,5.553,0,0,0-3.267-2.533,20.618,20.618,0,0,1-2.656-.629,3.721,3.721,0,0,1-1.607-5.163,4.635,4.635,0,0,0-.795-5.565,7.52,7.52,0,0,0-5.565-1.511c-.515-1.127.349-2.394,1.275-3.215s2.062-1.616,2.263-2.839c.323-1.922-2.132-3.381-3.992-2.813s-3.049,2.385-3.835,4.167a12.569,12.569,0,0,1-1.546,2.961,3.036,3.036,0,0,1-2.935,1.206c-1.537-.393-2.123-2.219-2.463-3.756a24.493,24.493,0,0,1-.821-6.3,8.222,8.222,0,0,1,2.376-5.731c2.542-2.341,6.456-2.114,9.889-1.738a2.519,2.519,0,0,1,.262-3.32,3.774,3.774,0,0,1,3.424-.839,4.7,4.7,0,0,1,2.647,1.581c.978,1.188,1.258,2.8,1.992,4.15s2.4,2.507,3.756,1.782c1.179-.629,1.363-2.254,1.075-3.555s-.917-2.56-.812-3.887c.2-2.525,2.83-4.053,5.145-5.093s4.962-2.446,5.329-4.962a4.636,4.636,0,0,1,.279-1.433,2.8,2.8,0,0,1,1.04-.978c6.753-4.464,13.628-8.989,21.35-11.426.4-.131.445.009.856-.087.577-.332.192-1.249-.358-1.616s-1.284-.655-1.424-1.3c-.1-.472.183-.943.253-1.424a1.778,1.778,0,0,0-2.332-1.8c-.62-.821.6-1.773,1.6-2.053a43.663,43.663,0,0,1,9.129-1.485,1.626,1.626,0,0,1,1.04.175,1.235,1.235,0,0,1,.079,1.695,9.571,9.571,0,0,1-1.389,1.267,3.816,3.816,0,0,0-1,3.835c1.616.821,3.363,1.668,5.154,1.38s3.363-2.3,2.525-3.9c-.777-1.494-3.127-1.835-3.529-3.468-.472-1.913,2.236-3.617,1.625-5.486-.262-.821-1.083-1.31-1.712-1.9a5.168,5.168,0,0,1-1.127-5.713,6.509,6.509,0,0,1-5.7-1.782c-1.363-1.371-2.446-3.547-4.385-3.477-1.773.052-3.3,2.123-4.962,1.494-.411-.157-.839-.472-1.232-.288a1.019,1.019,0,0,0-.463.76c-.419,2.018.306,4.315-.795,6.063-1.2,1.9-3.966,2.158-5.416,3.87-.786.926-1.092,2.175-1.817,3.154s-2.254,1.607-3.127.751a4.3,4.3,0,0,0-1.171-5.241A11.256,11.256,0,0,0,544,447.487a15.349,15.349,0,0,1-2.892-1.607,2.865,2.865,0,0,1-1.057-1.136,2.611,2.611,0,0,1,.07-1.8,7.355,7.355,0,0,1,5.844-4.84c1.153-.157,2.5-.1,3.267-.987.4-.463.612-1.171,1.206-1.354a1.758,1.758,0,0,1,1.109.131c1.441.507,2.874,1.013,4.315,1.52a2.957,2.957,0,0,0,1.537.253,1.034,1.034,0,0,0,.9-1.092c-.14-.716-1.241-1.057-1.136-1.782a1.133,1.133,0,0,1,.358-.611,15.436,15.436,0,0,1,12.239-4.831c.542.9-.315,1.957-1.04,2.717s-1.293,2.132-.419,2.717a2.3,2.3,0,0,0,1.144.262,9.983,9.983,0,0,1,3.058.926c1.494.646,2.961,1.363,4.394,2.132a5.54,5.54,0,0,1,.1-2.83,1.922,1.922,0,0,1,2.271-1.232c.856.332,1.293,1.468,2.21,1.572,1.214.14,1.695-1.66,1.188-2.778s-1.52-2.044-1.6-3.276c-.061-.821.253-1.843-.4-2.341a1.738,1.738,0,0,0-.777-.28q-8.229-1.507-16.467-3.023c-.978-.183-2.385-.044-2.428.943-.026.559.472,1.109.253,1.616-.236.542-1,.5-1.564.69a2.123,2.123,0,0,0-1.223,2.245,6.121,6.121,0,0,0,1.031,2.525c-1.075-.446-2.691-.524-3.765-.978a14.491,14.491,0,0,0-.943-3.625,1.28,1.28,0,0,0-1.669-1.031c-1.415.218-2.83.428-4.246.646a1.641,1.641,0,0,0-.97.376c-.55.585-.009,1.52-.026,2.324a2.178,2.178,0,0,1-1.686,1.878,6.355,6.355,0,0,1-2.691-.035l-5.94-.917a9.731,9.731,0,0,0,4.49-3.005c.786-.926,1.206-2.656.07-3.092a2.712,2.712,0,0,0-1.031-.079c-2.691.017-4.813-2.228-7.329-3.18a7.205,7.205,0,0,0-2.472-.454Z" transform="translate(-106.919 -193.626)" fill="#6ed4fc"/>
    <path id="Path_111" data-name="Path 111" d="M787.509,504.223a3.154,3.154,0,0,1-2.673,1.267c-2.734-.236-3.887-4.176-6.6-4.621a1.055,1.055,0,0,0-.716.07c-.4.218-.472.76-.5,1.214-.114,2.254-.21,4.595.673,6.674,1.284,3.04,4.612,5.591,3.914,8.814-3.756-1.738-5.713-5.958-6.6-10s-1.031-8.29-2.621-12.116c-1.214,1.546-3.748.271-4.848-1.354-1.048-1.537-1.695-3.32-2.708-4.883s-2.568-2.953-4.42-3.04c-1.948-.087-3.643,1.249-5.128,2.516a11.868,11.868,0,0,0-3.189,3.547c-1.039,2.1-.769,4.56-.821,6.893-.052,2.516-.585,5.18-2.306,7.032s-4.892,2.49-6.788.821a7.656,7.656,0,0,1-1.9-3.416,166.23,166.23,0,0,1-5.137-18.327c-.314,1.415-1.564,3.241-2.752,2.411a2.454,2.454,0,0,1-.629-.821c-2.219-3.748-6.316-6-10.465-7.355s-8.5-1.974-12.6-3.459a32.206,32.206,0,0,1-6.543-3.258,5.152,5.152,0,0,0-.314,5.259,4.213,4.213,0,0,0,4.735,1.983c.908-.3,1.677-.926,2.577-1.241a2.016,2.016,0,0,1,2.507.716c.384.83-.192,1.835.1,2.708.428,1.319,2.429,1.424,3.127,2.629a2.434,2.434,0,0,1-.655,2.813,11.773,11.773,0,0,1-2.638,1.625c-2.935,1.634-5.023,4.42-7.591,6.587s-6.194,3.756-9.251,2.367c.725-3.7-3.669-6.4-4.481-10.081-.271-1.214-.131-2.5-.507-3.678-.55-1.712-2.07-2.883-3.311-4.176a16.414,16.414,0,0,1-4.5-11.924,16.543,16.543,0,0,0,0-4.551c-.341-1.476-1.572-2.909-3.093-2.848-3.468.157-7.845.419-9.662-2.542-.655-1.057-.935-2.6.009-3.416a3.3,3.3,0,0,1,2.507-.428c2.612.253,5.215.515,7.827.769,1.826.175,3.8.323,5.372-.629s2.254-3.494.8-4.621c-1.057-.821-2.961-.777-3.276-2.079-.253-1.092.952-2.324.3-3.241-.463-.646-1.511-.472-2.149.017a14.041,14.041,0,0,1-1.808,1.581c-1.249.646-2.734.026-4.08-.393s-3.145-.454-3.791.795c-.734,1.389.638,3.223-.079,4.621-.961,1.843-4.193.795-5.539,2.385-1.537,1.817,1.048,4.543.533,6.866a4.281,4.281,0,0,1-4.219-.236,4.085,4.085,0,0,1-1.764-3.809c.122-1.048.673-2.123.306-3.11a3.631,3.631,0,0,0-1.843-1.686q-3.8-2.11-7.6-4.2c-.708,1.31.183,2.926,1.3,3.914s2.507,1.721,3.241,3.014a3.961,3.961,0,0,1-1.485,5.224.921.921,0,0,1-.76.131,1.053,1.053,0,0,1-.489-.655c-1.337-3.433-3.354-6.814-6.569-8.6s-7.845-1.424-9.959,1.59c-.5.716-.839,1.537-1.275,2.3-2.315,4.027-7.294,5.932-11.942,5.809a2.3,2.3,0,0,1-1.3-.306c-.751-.515-.716-1.616-.6-2.525.166-1.284.323-2.56.489-3.844a3.079,3.079,0,0,1,.847-2.105c.865-.681,2.105-.253,3.206-.271a4.039,4.039,0,0,0,3.678-2.839,4.564,4.564,0,0,0-1.275-4.543c-.5-.472-1.171-1.066-.909-1.7a1.416,1.416,0,0,1,.987-.664c1.966-.568,4.053-.716,5.984-1.4s3.818-2.053,4.281-4.053c.14-.611.2-1.354.751-1.66a2.435,2.435,0,0,1,.874-.175,4.252,4.252,0,0,0,3.643-4.429c.926-.646,2.228-.166,3.127.524a8.689,8.689,0,0,0,2.778,1.9c2.035.559,4-1.249,6.115-1.258a7.647,7.647,0,0,0,2.638.009c.847-.306,1.354-1.144,2-1.765s1.791-1,2.394-.332c-.175-1.267-.341-2.525-.515-3.783a7.436,7.436,0,0,0,6.054-1.1l-6.6-2.228a1.423,1.423,0,0,1-.62-.332c-.48-.515,0-1.319.384-1.9.935-1.406,1.092-3.721-.445-4.42-1.048-.48-2.245.1-3.25.655-1.607.891-3.215,1.791-4.822,2.682-.148.917.97,1.441,1.66,2.053a2.784,2.784,0,0,1-1.817,4.866,3.487,3.487,0,0,1,.62,2.944l-3.241.236a1.392,1.392,0,0,1-1.048-.21c-.349-.306-.3-.847-.384-1.3a2.812,2.812,0,0,0-2.376-2.07,8.2,8.2,0,0,0-3.311.306,2.017,2.017,0,0,1-1.433-.035,1.429,1.429,0,0,1-.559-.716,3.653,3.653,0,0,1,.734-3.512,20.1,20.1,0,0,1,2.76-2.542,16.092,16.092,0,0,0,4.8-7.425c1.782-.751,3.625-1.765,5.416-2.516a21.628,21.628,0,0,1,4.5-1.511,21.26,21.26,0,0,1,4.411-.21c2.009.035,4.027.07,6.036.114a14.527,14.527,0,0,1,5.285.76,4.93,4.93,0,0,1,3.224,3.94,1.21,1.21,0,0,1-.393,1.109,1.415,1.415,0,0,1-.76.175c-1.668.052-2.376.472-4.045.533,1.057,1.127,2.245,2.315,3.783,2.516,2.708.349,4.656-2.455,5.905-4.892a2.384,2.384,0,0,0,2.49,2.21,5.021,5.021,0,0,0,1.878-.734,36.947,36.947,0,0,1,17.515-4.525,1.886,1.886,0,0,1,1.441-2.079c1.249-.245,2.367.83,2.97,1.948s.97,2.411,1.931,3.25,2.8.795,3.171-.411c.367-1.162-.847-2.158-1.852-2.848s-2.07-1.948-1.389-2.961a89.814,89.814,0,0,1,15.585-2.507,6.631,6.631,0,0,0,2.621-.454,2.037,2.037,0,0,0,1.223-2.158,5.956,5.956,0,0,1-6.2-2.341c5.407-.446,11.068-.839,16.266.376l4.551,3.861c-.865.9-2.018,1.747-1.389,2.647a1.937,1.937,0,0,0,1.6.55c1.1.018,2.2.044,3.293.044a128.067,128.067,0,0,1,39.1,81.906c-1.835-.07-3.52,2.254-3.285,4.281.28,2.35,1.974,4.237,3.188,6.263a9.508,9.508,0,0,1,.541,1.022Z" transform="translate(-136.744 -187.727)" fill="#6ed4fc"/>
    <path id="Path_159" data-name="Path 159" d="M888,0" transform="translate(-216.117 488.064)" fill="none" stroke="#3f3d56" stroke-width="2"/>
    <path id="Path_112" data-name="Path 112" d="M818.014,377.122a23.176,23.176,0,0,0-32.773.406c-8.938,9.162-21.7,55.432-21.7,55.432s45.94-13.9,54.878-23.065A23.176,23.176,0,0,0,818.014,377.122ZM793.936,401.8a10.74,10.74,0,1,1,15.188-.188,10.74,10.74,0,0,1-15.188.188Z" transform="translate(-172.285 -181.12)" fill="#57b894"/>
  </g>
</svg>
