<svg xmlns="http://www.w3.org/2000/svg" width="442" height="462" viewBox="0 0 442 462">
  <g id="Group_12" data-name="Group 12" transform="translate(-0.191 0.061)">
    <ellipse id="Ellipse_41" data-name="Ellipse 41" cx="140" cy="9.5" rx="140" ry="9.5" transform="translate(0.191 442.939)" fill="#e6e6e6"/>
    <path id="Path_137" data-name="Path 137" d="M562.413,459.785c1.374-7.718,8.488-12.253,15.582-14.068,8.1-2.072,16.726-1.817,24.965-.882,16.592,1.882,32.883,6.967,49.72,6.179a83.754,83.754,0,0,0,41.151-13.242,81.042,81.042,0,0,0,28.89-32.384,83.84,83.84,0,0,0,8.422-42.905c-.138-1.839-.347-3.671-.605-5.5-.185-1.307-2.169-.751-1.986.547a81.124,81.124,0,0,1-5.986,43.3,79.153,79.153,0,0,1-27.276,33.488,81.9,81.9,0,0,1-40.564,14.511c-16.622,1.214-32.773-3.564-49.109-5.728-8.25-1.093-16.664-1.5-24.9-.067-7.3,1.269-14.782,4.532-18.527,11.292a15.9,15.9,0,0,0-1.761,4.91c-.231,1.3,1.753,1.852,1.986.547Z" transform="translate(-366.54 -189.631)" fill="#3f3d56"/>
    <ellipse id="Ellipse_42" data-name="Ellipse 42" cx="86" cy="85.5" rx="86" ry="85.5" transform="translate(270.191 -0.061)" fill="#b77bf9"/>
    <ellipse id="Ellipse_43" data-name="Ellipse 43" cx="22" cy="22.5" rx="22" ry="22.5" transform="translate(302.191 45.939)" fill="#fff"/>
    <path id="Path_138" data-name="Path 138" d="M760.026,277.5a13.058,13.058,0,0,0,13.024,12.355h35.693A13.058,13.058,0,0,0,821.766,277.5Z" transform="translate(-429.14 -164.938)" fill="#fff"/>
    <circle id="Ellipse_44" data-name="Ellipse 44" cx="11.669" cy="11.669" r="11.669" transform="translate(304.099 64.171)" fill="#3f3d56"/>
    <circle id="Ellipse_45" data-name="Ellipse 45" cx="2.746" cy="2.746" r="2.746" transform="translate(317.14 68.289)" fill="#fff"/>
    <circle id="Ellipse_46" data-name="Ellipse 46" cx="21.965" cy="21.965" r="21.965" transform="translate(373.425 47.011)" fill="#fff"/>
    <circle id="Ellipse_47" data-name="Ellipse 47" cx="11.669" cy="11.669" r="11.669" transform="translate(375.484 64.171)" fill="#3f3d56"/>
    <circle id="Ellipse_48" data-name="Ellipse 48" cx="2.746" cy="2.746" r="2.746" transform="translate(388.526 68.289)" fill="#fff"/>
    <ellipse id="Ellipse_49" data-name="Ellipse 49" cx="8.5" cy="8" rx="8.5" ry="8" transform="translate(349.191 84.939)" fill="#3f3d56"/>
    <rect id="Rectangle_18" data-name="Rectangle 18" width="16" height="12" transform="translate(354.191 166.939)" fill="#b77bf9"/>
    <path id="Path_139" data-name="Path 139" d="M501.262,689.354s9.69,28.376,5.537,38.758l12.458,11.074,7.613-9.69s-8.305-8.305-7.613-14.534,1.384-28.376,1.384-28.376Z" transform="translate(-347.991 -293.227)" fill="#ffb9b9"/>
    <path id="Path_140" data-name="Path 140" d="M547.933,761.137c-.566.331-1.106.644-1.6.931H503.374a2.267,2.267,0,0,1-1.114-2.315c.2-1.027.714-3.116,1.349-5.519,1.506-5.684,3.717-13.127,4.2-12.335l.006,0a.009.009,0,0,1,0,.006c.67,1.236,2.054,6.772,5.519,6.085s9-2.08,9-2.08-1.976-4.439-.087-6.233a2.647,2.647,0,0,1,1.471-.688c4.152-.688,4.152,5.536,4.152,5.536l15.225,8.3a25.292,25.292,0,0,1,3.83,1.4C550.014,755.679,553.069,758.152,547.933,761.137Z" transform="translate(-348.296 -309.646)" fill="#2f2e41"/>
    <path id="Path_141" data-name="Path 141" d="M450.494,675.494,432.5,696.949l-4.845,11.074,6.229,4.845,5.537-2.076s4.845-12.458,9.689-14.534,16.611-15.918,16.611-15.918Z" transform="translate(-324.908 -289.749)" fill="#ffb9b9"/>
    <path id="Path_142" data-name="Path 142" d="M495.6,647.172l-9.177,17.012-6.575,12.181c-2.1,1.253-4.907,1.232-7.925.491a30.352,30.352,0,0,1-4.125-1.377c-8.236-3.371-16.59-10.063-16.59-10.063l15.808-19.753,5.163-6.443,1.225-1.536,5.9,2.526,10.416,4.45Z" transform="translate(-332.295 -277.891)" fill="#6b6b6b"/>
    <path id="Path_143" data-name="Path 143" d="M452.862,435.315l-7.331,30.071,7.546,38.579s.186,15.771,7.1,14.574-.332-17.1-.332-17.1L456.463,469.8l10.814-31.252a5.742,5.742,0,0,0-2.768-6.8h0C460.228,429.139,454.143,431,452.862,435.315Z" transform="translate(-330.514 -212.935)" fill="#ffb9b9"/>
    <path id="Path_144" data-name="Path 144" d="M485.478,398.22,479.249,417.6l-11.766-6.229s4.845-13.842,4.845-15.918S485.478,398.22,485.478,398.22Z" transform="translate(-337.398 -201.765)" fill="#ffb9b9"/>
    <circle id="Ellipse_50" data-name="Ellipse 50" cx="14.534" cy="14.534" r="14.534" transform="translate(128.701 174.999)" fill="#ffb9b9"/>
    <path id="Path_145" data-name="Path 145" d="M479.474,427.778l-2.768-2.768-.692-3.461s-9-11.766-16.611-7.613c-2.379,1.3-4.15,4.285-5.46,7.779a37.791,37.791,0,0,0,.869,28.11l12.2,28.476,27.684-2.768-4.845-17.995s4.845-11.074-4.153-18.687Z" transform="translate(-332.432 -207.446)" fill="#ff7d7d"/>
    <path id="Path_146" data-name="Path 146" d="M505.037,647.172l-9.177,17.012-6.575,12.181c-2.1,1.253-4.907,1.232-7.925.491-.526-3.5,2.616-22.009.145-37.1l.111-.54,1.225-1.536,5.9,2.526,10.416,4.45Z" transform="translate(-341.731 -277.891)" opacity="0.3"/>
    <path id="Path_147" data-name="Path 147" d="M499.479,499.645s-17.995-11.074-30.453,2.768l.692,4.153s-10.382,11.766-4.153,36.682,15.918,89.974,15.918,89.974,22.84,1.384,33.221-6.229c0,0-3.461-85.821-15.226-94.126Z" transform="translate(-336.173 -233.288)" fill="#6b6b6b"/>
    <path id="Path_148" data-name="Path 148" d="M460.69,439.954l19.528,24.014,35.3,17.3s12.677,9.383,15.9,3.15-13.826-10.071-13.826-10.071l-27.247-16.422-18.364-27.5a5.742,5.742,0,0,0-7.089-1.9h0C460.221,430.352,458.026,436.326,460.69,439.954Z" transform="translate(-334.907 -212.145)" fill="#ffb9b9"/>
    <path id="Path_149" data-name="Path 149" d="M431.787,717.868s4.242-5.335,6.777-1.974-2.988,6.243-2.988,6.243l-.321,17.341s3.014,13.259-5.123,8.137-8.457-5.737-10.057-8.8-4.908-15.394-7.762-19.369-5.468-11.979-2.08-12.966,19.182-4.5,18.395-3.33-5.056,4.958-2.842,7.707S431.787,717.868,431.787,717.868Z" transform="translate(-318.942 -298.346)" fill="#2f2e41"/>
    <path id="Path_150" data-name="Path 150" d="M479.392,362.371c0-.018,0-.035,0-.053a20.071,20.071,0,1,0-20.071,20.071c.466,0,2.31,3.492,2.768,3.461C462.118,375.255,468.971,363.083,479.392,362.371Z" transform="translate(-328.545 -185.243)" fill="#2f2e41"/>
    <circle id="Ellipse_51" data-name="Ellipse 51" cx="13.15" cy="13.15" r="13.15" transform="translate(96.172 148.7)" fill="#2f2e41"/>
    <path id="Path_151" data-name="Path 151" d="M436.355,320.038a13.132,13.132,0,0,1,3.752,25.741,13.141,13.141,0,1,0-3.752-25.741Z" transform="translate(-327.636 -178.108)" fill="#2f2e41"/>
    <path id="Path_152" data-name="Path 152" d="M203.6,251.939h10.535a8.844,8.844,0,0,1,8.844,8.844V264.4H203.6Z" transform="translate(-63.825 -79.016)" fill="#2f2e41"/>
  </g>
</svg>
