<svg xmlns="http://www.w3.org/2000/svg" width="163.343" height="217.07" viewBox="0 0 163.343 217.07">
  <g id="Group_7" data-name="Group 7" transform="matrix(0.995, 0.105, -0.105, 0.995, -1128.63, -902.832)">
    <g id="Group_6" data-name="Group 6" transform="matrix(0.995, 0.105, -0.105, 0.995, 1262.804, 769.623)">
      <path id="Path_51" data-name="Path 51" d="M0,171.015A136.161,136.161,0,0,0,102.022,37.189c-.117-7.6-.917-15.351-4.117-22.245S88.762,2.089,81.328.455C73.215-1.327,64.654,2.317,58.608,8S48.6,21.19,44.95,28.639C22.981,73.506,6.289,121.649.04,171.2Z" transform="translate(17.488 1.83)" fill="#f2f2f2"/>
      <path id="Path_52" data-name="Path 52" d="M78.515,1.234,63.926,36.266,49.34,71.3c-4.62,11.094-9.232,22.194-14.007,33.215C30.6,115.437,25.7,126.286,20.482,136.96,15.267,147.619,9.725,158.1,3.71,168.282q-1.124,1.9-2.269,3.788a.774.774,0,0,1-1.316-.814c6.13-10.1,11.78-20.524,17.078-31.138s10.263-21.44,15.038-32.342c4.8-10.96,9.417-22.008,14.021-33.061Q53.53,57.265,60.8,39.812L75.386,4.781,77.2.421c.395-.948,1.709-.129,1.316.814Z" transform="translate(26.514 0) rotate(3)"/>
      <path id="Path_85" data-name="Path 85" d="M3.032,187.573l17.711-32.861,26.286-46.244L56.373,90.98,102.323,0S81.93,48.307,55.462,100.337,6.373,192.851,6.373,192.851L0,196.746Z" transform="translate(0 8.971)"/>
    </g>
    <path id="Path_83" data-name="Path 83" d="M6.447,109.743A25.207,25.207,0,0,0,2.1,118.612a16.691,16.691,0,0,0-.359,1.966c-.736,5.994-3.22-15.482-.48-18.9s.48,10.143.48,10.143L6.388,93.113S16.678,29.437,24.528,0" transform="matrix(0.921, 0.391, -0.391, 0.921, 1285.443, 868.708)" fill="#070707"/>
  </g>
</svg>
