<svg xmlns="http://www.w3.org/2000/svg" width="464.742" height="449.081" viewBox="0 0 464.742 449.081">
  <g id="Group_4" data-name="Group 4" transform="translate(-99.083 0)">
    <path id="Path_3" data-name="Path 3" d="M713.322,735.888a191.381,191.381,0,0,1-82.242,18.45q-6.135,0-12.182-.38a2109.711,2109.711,0,0,0-263.908,0q-6.044.376-12.182.38a191.319,191.319,0,0,1-94.228-24.656c43.5-18.843,128.461-31.642,226.154-31.642C582.813,698.04,675.311,713.7,713.322,735.888Z" transform="translate(-149.498 -305.258)" fill="#bcbcc2"/>
    <path id="Path_4" data-name="Path 4" d="M700.089,354.326a15.588,15.588,0,0,0-16.194-2.565c-8.056,3.514-11.565,13.384-11,22.155s4.218,17,6.585,25.463c3.179,11.369,4.005,23.692.279,34.893s-12.494,21.074-23.867,24.24c-10.556,2.939-21.753-.008-32.309-2.946" transform="translate(-270.141 -193.466)" fill="none" stroke="#3f3d56" stroke-miterlimit="10" stroke-width="1"/>
    <path id="Path_5" data-name="Path 5" d="M755.334,325.662a9.2,9.2,0,0,0-18.377-1.06l-1.06,18.377,18.376,1.06a9.2,9.2,0,1,0,1.06-18.376Z" transform="translate(-306.274 -182.327)" fill="#6ed4fc"/>
    <path id="Path_6" data-name="Path 6" d="M726.2,396.205a9.2,9.2,0,1,0-18.376-1.06l-1.06,18.376,18.376,1.06a9.2,9.2,0,0,0,1.06-18.377Z" transform="translate(-296.902 -205.022)" fill="#6ed4fc"/>
    <path id="Path_7" data-name="Path 7" d="M689.214,323.692A9.2,9.2,0,0,0,677.393,337.8L691.5,349.623l11.821-14.11a9.2,9.2,0,1,0-14.109-11.821Z" transform="translate(-286.393 -183.766)" fill="#6ed4fc"/>
    <path id="Path_8" data-name="Path 8" d="M810.656,340.488a15.588,15.588,0,0,0-14.925-6.786c-8.7,1.241-14.712,9.819-16.506,18.424s-.462,17.508-.436,26.3c.036,11.805-2.451,23.9-9.026,33.707s-17.656,16.984-29.461,17.007c-10.957.021-20.965-5.8-30.357-11.447" transform="translate(-297.925 -188.005)" fill="none" stroke="#3f3d56" stroke-miterlimit="10" stroke-width="1"/>
    <path id="Path_9" data-name="Path 9" d="M881.391,320.6a9.2,9.2,0,1,0-17.43-5.917l-5.917,17.43,17.43,5.917a9.2,9.2,0,1,0,5.917-17.43Z" transform="translate(-345.57 -179.916)" fill="#6ed4fc"/>
    <path id="Path_10" data-name="Path 10" d="M834.521,380.83a9.2,9.2,0,0,0-17.43-5.917l-5.917,17.43,17.43,5.917a9.2,9.2,0,1,0,5.917-17.43Z" transform="translate(-330.491 -199.294)" fill="#6ed4fc"/>
    <path id="Path_11" data-name="Path 11" d="M820.137,301.477a9.2,9.2,0,1,0-15.152,10.451l10.451,15.153,15.153-10.451a9.2,9.2,0,1,0-10.451-15.153Z" transform="translate(-327.977 -176.398)" fill="#6ed4fc"/>
    <path id="Path_12" data-name="Path 12" d="M787.652,162.775a15.588,15.588,0,0,1,15.117,6.346c5,7.229,2.784,17.468-2.313,24.628s-12.537,12.23-19.006,18.179c-8.689,7.991-15.88,18.032-18.611,29.517s-.475,24.494,7.525,33.175c7.426,8.057,18.5,11.448,29.019,14.508" transform="translate(-314.586 -132.995)" fill="none" stroke="#3f3d56" stroke-miterlimit="10" stroke-width="1"/>
    <path id="Path_13" data-name="Path 13" d="M783.152,123.777a9.2,9.2,0,1,1,16.181,8.776l-8.776,16.181-16.18-8.776a9.2,9.2,0,1,1,8.775-16.181Z" transform="translate(-317.103 -118.96)" fill="#6ed4fc"/>
    <path id="Path_14" data-name="Path 14" d="M770.772,199.088a9.2,9.2,0,1,1,16.18,8.776l-8.775,16.181L762,215.269a9.2,9.2,0,1,1,8.776-16.181Z" transform="translate(-313.121 -143.189)" fill="#6ed4fc"/>
    <path id="Path_15" data-name="Path 15" d="M841.511,153.943a9.2,9.2,0,0,1,2.62,18.22l-18.219,2.62-2.62-18.22a9.2,9.2,0,1,1,18.22-2.62Z" transform="translate(-334.359 -127.675)" fill="#6ed4fc"/>
    <rect id="Rectangle_10" data-name="Rectangle 10" width="16.957" height="8.818" transform="translate(298.784 224.567)" fill="#fbbebe"/>
    <rect id="Rectangle_11" data-name="Rectangle 11" width="16.957" height="8.818" transform="translate(298.784 224.567)" opacity="0.1"/>
    <circle id="Ellipse_1" data-name="Ellipse 1" cx="21.705" cy="21.705" r="21.705" transform="translate(245.877 54.317)" fill="#2f2e41"/>
    <path id="Path_16" data-name="Path 16" d="M565.546,442.831s-6.783-2.035-8.14-1.357,4.748,6.1,4.748,6.1Z" transform="translate(-248.788 -222.673)" fill="#fbbebe"/>
    <path id="Path_17" data-name="Path 17" d="M565.546,442.831s-6.783-2.035-8.14-1.357,4.748,6.1,4.748,6.1Z" transform="translate(-248.788 -222.673)" opacity="0.1"/>
    <path id="Path_18" data-name="Path 18" d="M493.512,699.54s15.6,2.035,18.314,2.035,10.174,2.713,6.1,6.1-29.845,8.14-33.236,6.1-8.139-8.139-4.748-8.818S493.512,699.54,493.512,699.54Z" transform="translate(-223.556 -305.74)" fill="#3f3d56"/>
    <path id="Path_19" data-name="Path 19" d="M354.424,615.971l-5.426,9.5,6.783,3.391,12.888,2.713,6.783-8.818-2.713-10.174Z" transform="translate(-112.277 -197.075)" fill="#fbbebe"/>
    <path id="Path_20" data-name="Path 20" d="M503.17,633.54s-8.818,37.306-7.461,39.341,4.07,7.461,1.357,9.5S483.5,685.09,483.5,685.09l3.392-19.67,4.748-23.74Z" transform="translate(-225.075 -284.507)" fill="#2f2e41"/>
    <path id="Path_21" data-name="Path 21" d="M469.422,513.686,478.24,553.7s1.356,19.67-2.035,27.132S454.5,666.979,454.5,666.979s18.992.678,23.062-1.357S488.5,616.606,488.5,616.606s22.3-44.587,21.624-53.405,3.37-53.609-2.384-56.988S469.422,513.686,469.422,513.686Z" transform="translate(-215.745 -243.335)" fill="#2f2e41"/>
    <path id="Path_22" data-name="Path 22" d="M467.143,748.294l8.139-8.14s21.705,10.853,25.1,11.531,10.853,6.1,3.392,8.139-35.271.679-42.054,0-20.349-1.356-18.314-5.426,5.426-18.313,5.426-18.313,1.875-2.592,2.972.739,1.776,8.079,4.489,8.079S467.143,748.294,467.143,748.294Z" transform="translate(-212.108 -317.188)" fill="#3f3d56"/>
    <path id="Path_23" data-name="Path 23" d="M631.1,499.9l18.992-1.357,12.888,6.783-1.357,8.14-5.427,1.356s-14.922-6.1-23.74-4.07S631.1,499.9,631.1,499.9Z" transform="translate(-271.612 -241.076)" fill="#a0616a"/>
    <path id="Path_24" data-name="Path 24" d="M660.165,498.106s7.461,8.161,0,11.2c0,0,1.357,2.363,6.783,3.041s12.887,5.426,14.922,5.426,10.853-1.356,5.426-8.817-27.132-23.74-27.132-23.74-6.1-2.713-8.139,2.713-3.109,6.666-3.109,6.666S658.809,496.749,660.165,498.106Z" transform="translate(-278.291 -236.572)" fill="#2f2e41"/>
    <path id="Path_25" data-name="Path 25" d="M581.5,599.046s6.1,23.062,6.1,24.418,8.139-5.427,8.139-5.427l1.356-12.209s-5.426-5.426-5.426-8.818S581.5,599.046,581.5,599.046Z" transform="translate(-256.602 -272.397)" fill="#a0616a"/>
    <path id="Path_26" data-name="Path 26" d="M595.639,618.106s-4.748,6.1-8.139,4.07l2.035,23.062s1.357,11.531,6.1,6.783,9.5-28.488,9.5-28.488,6.783-14.244,1.357-16.279a56.5,56.5,0,0,0-9.5-2.713S597,618.784,595.639,618.106Z" transform="translate(-258.532 -275.178)" fill="#2f2e41"/>
    <path id="Path_27" data-name="Path 27" d="M534.5,509.9l20.349,42.054s6.783,23.74,9.5,24.418,12.888-4.07,14.244-4.748-11.531-27.132-11.531-31.879-15.6-31.2-15.6-31.2Z" transform="translate(-241.482 -244.293)" fill="#fff"/>
    <path id="Path_28" data-name="Path 28" d="M534.5,509.9l20.349,42.054s6.783,23.74,9.5,24.418,12.888-4.07,14.244-4.748-11.531-27.132-11.531-31.879-15.6-31.2-15.6-31.2Z" transform="translate(-239.896 -241.121)" opacity="0.1"/>
    <path id="Path_29" data-name="Path 29" d="M536.84,396.749s.679,14.244-2.035,23.74,3.391,40.7,3.391,40.7,10.174.678,12.887,0,39.341-1.357,41.376,0,1.357,25.1,0,24.418-36.628-8.139-53.585-5.426-18.992-1.357-19.67-2.713S507,439.481,507,439.481l-4.07-17.635L497.5,402.854l3.391-18.314Z" transform="translate(-229.578 -204.401)" fill="#fff"/>
    <circle id="Ellipse_2" data-name="Ellipse 2" cx="18.314" cy="18.314" r="18.314" transform="translate(247.912 67.205)" fill="#a0616a"/>
    <circle id="Ellipse_3" data-name="Ellipse 3" cx="18.314" cy="18.314" r="18.314" transform="translate(213.659 110.276)" fill="#fbbebe"/>
    <path id="Path_30" data-name="Path 30" d="M502.5,258.473s12.209,8.139,10.174,12.887-7.461,10.174-7.461,10.174L504.535,289l10.174,3.392,25.775,1.357s-1.357-23.062-9.5-29.166S513.353,254.4,512,248.977,502.5,258.473,502.5,258.473Z" transform="translate(-231.187 -160.406)" fill="#a0616a"/>
    <path id="Path_31" data-name="Path 31" d="M542.685,285.52c-4.439-8.292-16.928-7.285-19.516,1.758a8.182,8.182,0,0,0,.784,6.608c4.748,8.139,8.14,14.244,8.14,14.244l14.922-1.357S547.309,294.157,542.685,285.52Z" transform="translate(-237.718 -170.723)" fill="#a0616a"/>
    <path id="Path_32" data-name="Path 32" d="M501.938,293.954s-17.829,11.25-16.473,18.711a199.7,199.7,0,0,1,2.713,25.1c0,4.748,4.748,19.67,11.531,22.383s6.783-4.748,16.279,4.07,19.67,12.887,18.992,14.244,2.713-12.209-2.713-17.635-11.531-21.027-6.1-27.81S536.337,308.6,536.337,308.6s-.678-4.07-4.748-3.392-29.166-2.035-30.523-5.426A5.727,5.727,0,0,1,501.938,293.954Z" transform="translate(-225.683 -175.258)" fill="#2f2e41"/>
    <path id="Path_33" data-name="Path 33" d="M506.055,293.131s18.616-20.277,21.329-19.6,10.526,8.705,10.526,8.705l-10.526-7.349-21.329,19.385Z" transform="translate(-232.331 -168.683)" fill="#2f2e41"/>
    <path id="Path_34" data-name="Path 34" d="M457.849,313.54s2.548,27.434,6.022,30-26.37,1.884-26.37,1.884,6.783-21.027,2.713-23.74S457.849,313.54,457.849,313.54Z" transform="translate(-210.276 -181.559)" fill="#fbbebe"/>
    <path id="Path_35" data-name="Path 35" d="M461.414,344.767s-23.062-6.1-25.775-2.713-8.139,32.558-8.139,32.558,2.713,19.671,7.461,33.914,10.853,64.437,15.6,64.437,12.887-7.461,14.922-7.461,14.244-6.1,21.705-4.748a26.408,26.408,0,0,0,12.887-.678s-3.391-28.488-11.531-35.949-12.209-59.011-12.209-59.011S464.806,343.41,461.414,344.767Z" transform="translate(-207.058 -190.402)" fill="#b4afef"/>
    <path id="Path_36" data-name="Path 36" d="M529.5,436.714s7.713,10.468,15.387,11l4.283-.147s-6.783,17.635-3.391,18.314,13.566-12.887,10.174-20.349-13.566-18.992-13.566-18.992Z" transform="translate(-239.873 -217.913)" fill="#fbbebe"/>
    <path id="Path_37" data-name="Path 37" d="M565.739,441.54s-11.531,10.853-6.783,15.6,10.852,0,10.852,0S574.557,450.358,565.739,441.54Z" transform="translate(-248.981 -222.738)" fill="#fbbebe"/>
    <path id="Path_38" data-name="Path 38" d="M565.739,441.54s-11.531,10.853-6.783,15.6,10.852,0,10.852,0S574.557,450.358,565.739,441.54Z" transform="translate(-248.981 -222.738)" opacity="0.1"/>
    <circle id="Ellipse_4" data-name="Ellipse 4" cx="21.705" cy="21.705" r="21.705" transform="translate(250.626 50.247)" fill="#2f2e41"/>
    <circle id="Ellipse_5" data-name="Ellipse 5" cx="12.887" cy="12.887" r="12.887" transform="translate(269.617 40.751)" fill="#2f2e41"/>
    <path id="Path_39" data-name="Path 39" d="M502.709,185.927a12.888,12.888,0,0,1,11.53-12.815,13.044,13.044,0,0,0-1.355-.073,12.887,12.887,0,1,0,1.357,25.7,12.888,12.888,0,0,1-11.531-12.815Z" transform="translate(-230.379 -136.358)" fill="#2f2e41"/>
    <ellipse id="Ellipse_6" data-name="Ellipse 6" cx="17.296" cy="12.887" rx="17.296" ry="12.887" transform="translate(247.912 67.883)" fill="#2f2e41"/>
    <path id="Path_40" data-name="Path 40" d="M432.834,288.027c-.238,1.273-.8,2.552-.325,3.863a20.376,20.376,0,0,0,1.732,2.661,3.484,3.484,0,0,1-1.44,4.949,4.848,4.848,0,0,0-3.331-.564,2.17,2.17,0,0,0-1.681,2.352c.239,1.566,2.064,2.57,2.993,3.967a10.265,10.265,0,0,1,1.134,3.364c.457,1.829,1.261,3.645,1.354,5.475s-.8,3.764-2.613,4.026c-1.527.22-3.168-.815-4.272-2.071s-1.849-2.746-2.86-4.069c-3.286-4.3-8.9-6.3-12.707-10.2-4.874-5-5.906-12.4-4.163-18.3a11.8,11.8,0,0,1,4-6.358c2.161-1.587,5.046-2.094,7.466-3.328,2.588-1.319,4.573-3.43,6.862-5.153s5.124-3.1,8.247-2.639c2.179.324,4.245,1.51,6.407,2.069a10.367,10.367,0,0,0,7.065-.583l-2.009,2.156a10.231,10.231,0,0,0,4.553.69,5.52,5.52,0,0,1-3.056,2.76A5.484,5.484,0,0,0,450,274.245c-1.491,1.7-3.093,3.476-5.39,4.07-1.125.29-2.351.276-3.512.466a17.838,17.838,0,0,0-6.582,2.994c-1.061.674-2.4,1.437-2.389,2.836C432.136,285.776,433.076,286.726,432.834,288.027Z" transform="translate(-200.097 -166.237)" fill="#2f2e41"/>
    <path id="Path_41" data-name="Path 41" d="M456.688,356.072s-6.1,22.384,4.748,27.132,33.236,22.383,37.306,28.488,8.818,8.14,8.818,8.14,16.279-13.566,12.888-17.636-16.957-16.279-16.957-16.279S468.9,348.611,456.688,356.072Z" transform="translate(-215.898 -194.925)" fill="#b4afef"/>
    <path id="Path_42" data-name="Path 42" d="M509.859,353.437s-24.92-7.124-32.469-8.31-27.22.849-23.15,4.24,27.81,6.1,27.81,6.1l28.488,10.853Z" transform="translate(-215.485 -191.612)" fill="#a0616a"/>
    <path id="Path_43" data-name="Path 43" d="M534.677,315.575s2.035,13.566,2.035,18.314,3.391,8.818.678,8.818-4.748-2.713-4.748,0-4.07,18.992,0,18.992,14.244-2.713,16.279-2.713,8.818-1.357,8.14-8.818-3.392-15.6-2.035-16.957,2.035-8.139.678-9.5-4.748-10.174-4.748-10.174Z" transform="translate(-240.302 -181.559)" fill="#2f2e41"/>
    <g id="Group_1" data-name="Group 1" transform="translate(432.423 267.893)" opacity="0.3">
      <path id="Path_44" data-name="Path 44" d="M745.346,518.1a4.754,4.754,0,0,0-1.134,9.44l9.44,1.134,1.134-9.44a4.754,4.754,0,0,0-9.44-1.134Z" transform="translate(-740.025 -513.915)" fill="#6ed4fc"/>
    </g>
    <g id="Group_2" data-name="Group 2" transform="translate(544.424 224.298)" opacity="0.3">
      <path id="Path_45" data-name="Path 45" d="M912.237,452.064a4.754,4.754,0,0,0-4.668,8.282l8.282,4.669,4.669-8.282a4.754,4.754,0,0,0-8.282-4.669Z" transform="translate(-905.148 -449.644)" fill="#6ed4fc"/>
    </g>
    <g id="Group_3" data-name="Group 3" transform="translate(495.504 286.885)" opacity="0.3">
      <path id="Path_46" data-name="Path 46" d="M838.346,546.1a4.754,4.754,0,1,0-1.133,9.44l9.44,1.133,1.134-9.44a4.754,4.754,0,0,0-9.44-1.134Z" transform="translate(-833.025 -541.915)" fill="#6ed4fc"/>
    </g>
  </g>
</svg>
