<svg xmlns="http://www.w3.org/2000/svg" width="618.904" height="456.149" viewBox="0 0 618.904 456.149">
  <g id="Group_11" data-name="Group 11" transform="translate(0 -11)">
    <circle id="Ellipse_22" data-name="Ellipse 22" cx="56.06" cy="56.06" r="56.06" transform="translate(481.927 317.211)" fill="#a09ec7"/>
    <path id="Path_113" data-name="Path 113" d="M758.3,653.545,742.8,646.467,756.711,613.9l15.491,7.077Z" transform="translate(-260.244 -211.228)" fill="#a09ec7"/>
    <rect id="Rectangle_16" data-name="Rectangle 16" width="17.031" height="30.513" transform="translate(527.448 416.83) rotate(24.554)" fill="#a09ec7"/>
    <ellipse id="Ellipse_23" data-name="Ellipse 23" cx="5.322" cy="14.192" rx="5.322" ry="14.192" transform="matrix(0.815, -0.58, 0.58, 0.815, 511.85, 444.025)" fill="#a09ec7"/>
    <ellipse id="Ellipse_24" data-name="Ellipse 24" cx="5.322" cy="14.192" rx="5.322" ry="14.192" transform="matrix(0.815, -0.58, 0.58, 0.815, 480.287, 434.979)" fill="#a09ec7"/>
    <circle id="Ellipse_25" data-name="Ellipse 25" cx="19.16" cy="19.16" r="19.16" transform="translate(526.015 341.792)" fill="#fff"/>
    <circle id="Ellipse_26" data-name="Ellipse 26" cx="6.387" cy="6.387" r="6.387" transform="translate(531.873 345.956)" fill="#3f3d56"/>
    <path id="Path_114" data-name="Path 114" d="M908.838,540.125c4.307-20.32,25.98-32.938,48.409-28.185s37.119,25.08,32.812,45.4-20.9,20.958-43.33,16.2S904.53,560.444,908.838,540.125Z" transform="translate(-398.649 -236.871)" fill="#fdfcff"/>
    <ellipse id="Ellipse_27" data-name="Ellipse 27" cx="8.799" cy="28.03" rx="8.799" ry="28.03" transform="translate(562.436 384.273) rotate(-88.617)" fill="#a09ec7"/>
    <ellipse id="Ellipse_28" data-name="Ellipse 28" cx="8.799" cy="28.03" rx="8.799" ry="28.03" transform="translate(451.281 374.838) rotate(-88.617)" fill="#2f2e41"/>
    <path id="Path_115" data-name="Path 115" d="M919.959,688.187A12.773,12.773,0,0,0,943.2,698.8c2.931-6.416-1.663-10.122-8.079-13.053S922.891,681.77,919.959,688.187Z" transform="translate(-402.348 -297.309)" fill="#fff"/>
    <path id="Path_116" data-name="Path 116" d="M351.888,428.4c-16.158-4.137-26.874-16.8-26.874-16.8s15.482-5.956,31.641-1.819,26.874,16.8,26.874,16.8S368.046,432.536,351.888,428.4Z" transform="translate(-194.312 -200.918)" fill="#6ed4fc"/>
    <path id="Path_117" data-name="Path 117" d="M321.811,405.051l1.01-.388c.157-.06,15.9-6,32.107-1.847s27.162,16.919,27.27,17.047l.7.826-1.01.388c-.157.06-15.9,6-32.107,1.847h0c-16.209-4.15-27.162-16.919-27.27-17.047Zm58.446,14.962c-2.711-2.875-12.392-12.3-25.711-15.708s-26.339.2-30.1,1.421c2.711,2.875,12.391,12.3,25.711,15.708s26.339-.2,30.1-1.421Z" transform="translate(-193.19 -198.475)" fill="#3f3d56"/>
    <path id="Path_118" data-name="Path 118" d="M182.973,201.815l-5.3,22.073,31.785,7.063s-2.649-24.722,0-27.37Z" transform="translate(-142.692 -128.569)" fill="#a0616a"/>
    <circle id="Ellipse_29" data-name="Ellipse 29" cx="22.073" cy="22.073" r="22.073" transform="translate(31.01 43.668)" fill="#a0616a"/>
    <path id="Path_119" data-name="Path 119" d="M213.544,170.407s2.321-25.058-23.541-15.951c0,0-18.8-2.765-24.1,20.816l6.039,22.821,1.193,5.016,40.26,2.577s-18.345-9.989-19.3-29.024l3.551,3.5Z" transform="translate(-138.569 -111.278)" fill="#2f2e41"/>
    <path id="Path_120" data-name="Path 120" d="M179.714,446.85s19.424,27.37,32.668,34.434l44.146,60.038L245.05,651.687s28.253,18.541,66.219-7.946L299.791,523.664l-50.326-87.409Z" transform="translate(-143.406 -210.706)" fill="#393939"/>
    <path id="Path_121" data-name="Path 121" d="M294.671,764.321s-13.293,21.874,6.255,23.2,32.059-3.314,38.315,0,29.713-.663,27.368-11.268-32.841-17.9-32.841-17.9Z" transform="translate(-182.135 -323.555)" fill="#2f2e41"/>
    <path id="Path_122" data-name="Path 122" d="M148.884,397.473s6.971,32.831,16.326,44.568l16.7,72.625-54.321,96.755S146.172,639.65,191.53,630.4l37.1-114.776-11.519-100.2Z" transform="translate(-125.145 -197.118)" fill="#393939"/>
    <path id="Path_123" data-name="Path 123" d="M137.813,728.018s-20.239,14.59-2.853,24.736S165.5,764.215,170,770.189s27.416,12.9,29.19,1.822-23.418-31.83-23.418-31.83Z" transform="translate(-125.256 -312.926)" fill="#2f2e41"/>
    <path id="Path_124" data-name="Path 124" d="M243.568,364.131c0,4.415-51.209,16.775-82.111,12.361-14.542-2.075-20.281-19.212-22.294-36.765a162.9,162.9,0,0,1-.945-18.833c.018-4.061.15-7.8.327-10.966.344-6.216.839-10.251.839-10.251l-1.572-8.626-1.9-10.436-3.32-18.276-.274-1.51c-16.775-7.946-3.532-45.912-3.532-49.443s22.073,2.649,22.073,2.649l4.415-6.18,14.127,4.415,15.389-8.335,14.63,19.813s5.2,8.043,11.451,20.086c2.64,5.094,5.465,10.9,8.167,17.12,1.4,3.214,2.755,6.542,4.035,9.942,1.7,4.5,3.276,9.129,4.6,13.774.371,1.289.733,2.6,1.095,3.92.9,3.32,1.784,6.763,2.631,10.268,1.457,5.951,2.825,12.078,4.1,18.091C240.329,339.931,243.568,361.138,243.568,364.131Z" transform="translate(-123.825 -129.312)" fill="#ab4b4b"/>
    <path id="Path_125" data-name="Path 125" d="M168.887,180.586s21.19-30.9,44.146-21.19c0,0-1.766-20.307-15.893-22.073s-22.073-6.18-22.073-6.18l-12.361,6.18V154.1S161.823,177.055,168.887,180.586Z" transform="translate(-137.435 -103.809)" fill="#ab4b4b"/>
    <circle id="Ellipse_30" data-name="Ellipse 30" cx="12.361" cy="12.361" r="12.361" transform="translate(12.469 11)" fill="#fff"/>
    <path id="Path_126" data-name="Path 126" d="M223.771,282.471l-83.126,19.662-3.32-18.276L215.6,265.351C218.244,270.446,221.07,276.255,223.771,282.471Z" transform="translate(-128.555 -150.829)" fill="#e5e5e5"/>
    <path id="Path_127" data-name="Path 127" d="M146.09,346.041c.344-6.216.839-10.251.839-10.251l-1.572-8.626,85.263-20.157c1.7,4.5,3.276,9.129,4.6,13.774.371,1.289.733,2.6,1.095,3.92Z" transform="translate(-131.369 -165.423)" fill="#e5e5e5"/>
    <path id="Path_128" data-name="Path 128" d="M243.259,368.14l-96.335,22.779a162.889,162.889,0,0,1-.945-18.833l93.183-22.038C240.619,356,241.987,362.127,243.259,368.14Z" transform="translate(-131.585 -180.503)" fill="#e5e5e5"/>
    <path id="Path_129" data-name="Path 129" d="M308.345,392.047s18.541-1.766,15.01,12.361-24.722,5.3-24.722,5.3Z" transform="translate(-185.07 -195.193)" fill="#a0616a"/>
    <path id="Path_130" data-name="Path 130" d="M262.106,335.867l-11.478,25.6s-4.3-1.607-10.816-4.07c-2.013-.759-4.238-1.6-6.613-2.5-1.218-.468-2.481-.945-3.77-1.439-2.128-.8-4.344-1.651-6.6-2.516l-3.761-1.448c-2.181-.848-4.388-1.7-6.587-2.552-16.1-6.242-31.882-12.582-35.131-14.612-4.838-3.028-19.627-29.251-28.456-45.479a39.287,39.287,0,0,1-1.43-35.2c5.015-10.842,12.2-13.147,18.7-12.317a20.3,20.3,0,0,1,17.2,16.961l7.231,43.369,36.191,18.321,6.278,3.178,3.585,1.81,6.278,3.179,3.576,1.81,6.277,3.178Z" transform="translate(-130.885 -141.661)" fill="#ab4b4b"/>
    <path id="Path_131" data-name="Path 131" d="M140.98,260.358s9.712-36.2,32.668-29.136C173.648,231.221,150.692,232.1,140.98,260.358Z" transform="translate(-129.836 -138.552)" opacity="0.1"/>
    <path id="Path_132" data-name="Path 132" d="M270,363.665,256.007,392c-2.181-.848-4.388-1.7-6.586-2.552l14.3-28.96Z" transform="translate(-167.828 -184.16)" fill="#e5e5e5"/>
    <path id="Path_133" data-name="Path 133" d="M285.445,371.344l-13.491,27.309c-2.128-.8-4.344-1.651-6.6-2.516l13.818-27.971Z" transform="translate(-173.409 -186.85)" fill="#e5e5e5"/>
    <path id="Path_134" data-name="Path 134" d="M300.893,379.023l-12.961,26.258c-2.013-.759-4.238-1.6-6.613-2.5l13.3-26.938Z" transform="translate(-179.004 -189.541)" fill="#e5e5e5"/>
    <path id="Path_135" data-name="Path 135" d="M781.291,456.83c.051,105.025-62.367,141.72-139.379,141.758q-2.683,0-5.341-.057-5.354-.113-10.6-.483c-69.508-4.888-123.532-43.41-123.58-141.082-.049-101.079,129.074-228.7,138.759-238.137.008,0,.008,0,.017-.009.368-.36.556-.539.556-.539S781.239,351.814,781.291,456.83Z" transform="translate(-256.459 -134.338)" fill="#6ed4fc"/>
    <path id="Path_136" data-name="Path 136" d="M679.053,582.525l50.967-71.285-51.092,79.108-.133,8.182q-5.354-.113-10.6-.483l5.444-105.07-.043-.813.094-.154.517-9.928-51.3-79.255,51.448,71.817.129,2.105,4.112-79.384-43.92-81.9,44.453,67.952,4.242-164.587.017-.548v.539l-.656,129.794,43.65-51.476-43.833,62.654-1.121,71.081L722.2,362.639l-40.924,78.683-.623,39.525,59.163-94.98L680.43,494.635Z" transform="translate(-298.683 -134.338)" fill="#6b6b6b"/>
  </g>
</svg>
